HIERARCHY
ROOT Hips
{
	OFFSET 0.000000 0.000000 0.000000
	CHANNELS 6 Xposition Yposition Zposition Xrotation Yrotation Zrotation
	JOINT LeftUpLeg_virtual
	{
		OFFSET 0.000000 0.000000 0.000000
		CHANNELS 3 Xrotation Yrotation Zrotation
		JOINT LeftUpLeg
		{
			OFFSET 10.205400 -3.823500 0.155100
			CHANNELS 3 Xrotation Yrotation Zrotation
			JOINT LeftLeg
			{
				OFFSET 0.708757 -12.982077 0.567790
				CHANNELS 3 Xrotation Yrotation Zrotation
				JOINT LeftFoot
				{
					OFFSET -0.708756 -10.717838 -2.184338
					CHANNELS 3 Xrotation Yrotation Zrotation
					JOINT LeftToeBase
					{
						OFFSET 0.108149 -7.191104 7.560241
						CHANNELS 3 Xrotation Yrotation Zrotation
						JOINT LeftToe_End
						{
							OFFSET 0.070230 0.081724 4.490308
							CHANNELS 3 Xrotation Yrotation Zrotation
							End Site
							{
								OFFSET 0 0 0
							}
						}
					}
				}
			}
		}
	}
	JOINT RightUpLeg_virtual
	{
		OFFSET 0.000000 0.000000 0.000000
		CHANNELS 3 Xrotation Yrotation Zrotation
		JOINT RightUpLeg
		{
			OFFSET -10.205400 -3.823500 0.005500
			CHANNELS 3 Xrotation Yrotation Zrotation
			JOINT RightLeg
			{
				OFFSET -0.708756 -12.982134 0.610632
				CHANNELS 3 Xrotation Yrotation Zrotation
				JOINT RightFoot
				{
					OFFSET 0.708754 -10.717769 -1.945823
					CHANNELS 3 Xrotation Yrotation Zrotation
					JOINT RightToeBase
					{
						OFFSET -0.108140 -7.191069 7.372968
						CHANNELS 3 Xrotation Yrotation Zrotation
						JOINT RightToe_End
						{
							OFFSET -0.070227 0.081735 4.479403
							CHANNELS 3 Xrotation Yrotation Zrotation
							End Site
							{
								OFFSET 0 0 0
							}
						}
					}
				}
			}
		}
	}
	JOINT Spine_virtual
	{
		OFFSET 0.000000 0.000000 0.000000
		CHANNELS 3 Xrotation Yrotation Zrotation
		JOINT Spine
		{
			OFFSET 0.000000 6.876099 0.125700
			CHANNELS 3 Xrotation Yrotation Zrotation
			JOINT Spine1
			{
				OFFSET 0.000000 5.730043 0.104720
				CHANNELS 3 Xrotation Yrotation Zrotation
				JOINT Spine1_split
				{
					OFFSET 0.000000 5.730043 0.104720
					CHANNELS 3 Xrotation Yrotation Zrotation
					JOINT Spine2
					{
						OFFSET 0.000000 5.730043 0.104720
						CHANNELS 3 Xrotation Yrotation Zrotation
						JOINT Neck_virtual
						{
							OFFSET 0.000000 0.000000 0.000000
							CHANNELS 3 Xrotation Yrotation Zrotation
							JOINT Neck
							{
								OFFSET 0.000000 10.314075 0.188496
								CHANNELS 3 Xrotation Yrotation Zrotation
								JOINT Head
								{
									OFFSET 0.000000 7.643700 -2.377400
									CHANNELS 3 Xrotation Yrotation Zrotation
									JOINT HeadTop_End
									{
										OFFSET 0.000000 43.788605 -13.619600
										CHANNELS 3 Xrotation Yrotation Zrotation
										End Site
										{
											OFFSET 0 0 0
										}
									}
								}
							}
						}
						JOINT LeftShoulder_virtual
						{
							OFFSET 0.000000 0.000000 0.000000
							CHANNELS 3 Xrotation Yrotation Zrotation
							JOINT LeftShoulder
							{
								OFFSET 2.196100 4.412489 0.087492
								CHANNELS 3 Xrotation Yrotation Zrotation
								JOINT LeftShoulder_split
								{
									OFFSET 2.196100 4.412489 0.087492
									CHANNELS 3 Xrotation Yrotation Zrotation
									JOINT LeftArm
									{
										OFFSET 8.771219 -2.981674 -0.026999
										CHANNELS 3 Xrotation Yrotation Zrotation
										JOINT LeftForeArm
										{
											OFFSET 8.512804 0.000000 -0.000000
											CHANNELS 3 Xrotation Yrotation Zrotation
											JOINT LeftHand
											{
												OFFSET 18.484802 0.000000 -0.000000
												CHANNELS 3 Xrotation Yrotation Zrotation
												End Site
												{
													OFFSET 0 0 0
												}
											}
										}
									}
								}
							}
						}
						JOINT RightShoulder_virtual
						{
							OFFSET 0.000000 0.000000 0.000000
							CHANNELS 3 Xrotation Yrotation Zrotation
							JOINT RightShoulder
							{
								OFFSET -2.196100 4.412496 0.070690
								CHANNELS 3 Xrotation Yrotation Zrotation
								JOINT RightShoulder_split
								{
									OFFSET -2.196100 4.412496 0.070690
									CHANNELS 3 Xrotation Yrotation Zrotation
									JOINT RightArm
									{
										OFFSET -8.771282 -2.981682 -0.094208
										CHANNELS 3 Xrotation Yrotation Zrotation
										JOINT RightForeArm
										{
											OFFSET -8.494598 0.000000 0.000000
											CHANNELS 3 Xrotation Yrotation Zrotation
											JOINT RightHand
											{
												OFFSET -18.483803 0.000000 0.000001
												CHANNELS 3 Xrotation Yrotation Zrotation
												End Site
												{
													OFFSET 0 0 0
												}
											}
										}
									}
								}
							}
						}
					}
				}
			}
		}
	}
}
MOTION
Frames: 4
Frame Time: 0.03333333
4.552812 25.487793 23.617661 0.000000 0.000000 0.000000 -18.675390 -49.219207 -10.755348 -42.298405 -7.543333 33.024313 65.468654 -5.862906 5.621313 -17.326149 -8.144187 -33.756916 -3.616707 0.159371 2.513222 0.000000 0.000000 0.000000 -19.461193 -42.599241 -9.140822 -26.989043 7.312769 -47.978671 88.147273 6.224471 -14.645563 -8.886835 -6.941259 24.076934 -17.238592 -0.023203 7.912655 0.000000 0.000000 0.000000 -17.304892 -41.305251 -10.412965 25.935022 3.199355 -10.389132 -0.566739 1.240745 0.214568 1.275317 -1.177320 1.347003 0.000000 0.000000 0.000000 0.346158 0.924586 0.716922 0.705229 14.917304 0.761748 1.175845 23.095067 -5.648555 0.000000 0.000000 0.000000 0.236859 1.149172 0.814736 0.850160 1.786648 -8.058161 -0.028555 -3.694256 1.960839 -59.389485 4.480786 -44.305234 -175.780259 -66.431321 -173.843874 0.000000 0.000000 0.000000 0.258629 0.545346 0.334548 2.531973 11.142149 -4.653257 -6.329597 -1.263997 3.597388 -46.155403 21.653832 87.529072 -175.386117 64.035284 173.232790 0.000000 0.000000 0.000000 
3.990499 25.774960 22.139296 0.000000 0.000000 0.000000 -17.318575 -49.588615 -8.244073 -38.726957 -6.332187 33.019948 57.563946 -6.863635 5.410480 -13.485727 -8.344257 -36.461937 -3.584817 0.238721 1.890889 0.000000 0.000000 0.000000 -19.509718 -42.578129 -7.241371 -25.065573 5.394818 -48.629007 86.473166 7.791506 -13.773544 -16.486873 -10.256279 27.991763 -14.252972 0.684039 4.941552 0.000000 0.000000 0.000000 -18.490039 -42.432789 -9.485786 24.608292 4.432762 -9.583474 0.052252 1.355822 -0.469898 0.581949 -0.446737 1.506873 0.000000 0.000000 0.000000 0.693688 1.031098 0.017074 1.260538 14.601524 0.634778 3.271779 22.755118 -6.116821 0.000000 0.000000 0.000000 0.833840 1.275806 0.132026 0.759711 2.697323 -7.751402 -0.120973 -5.194518 2.147778 -58.051069 4.688352 -45.424317 -176.733617 -64.597641 -174.510199 0.000000 0.000000 0.000000 0.799664 0.640222 -0.361092 2.335845 11.853169 -4.582230 -5.973284 -0.357583 2.765081 -47.376917 19.574033 87.944484 -174.224643 66.581374 172.363348 0.000000 0.000000 0.000000 
3.432040 26.183439 20.560459 0.000000 0.000000 0.000000 -14.662029 -48.807753 -5.077158 -36.378738 -5.062415 32.629446 49.530169 -7.307467 4.822470 -10.276538 -8.816811 -37.489693 -3.768597 0.256622 1.333766 0.000000 0.000000 0.000000 -18.088366 -41.877485 -4.735543 -22.006313 2.456816 -48.203705 83.437823 8.122593 -11.806020 -25.932290 -14.317882 27.057325 -8.454508 1.192663 3.103724 0.000000 0.000000 0.000000 -18.216569 -42.968454 -7.682304 23.269942 5.519838 -8.877988 0.633649 1.387485 -1.156495 -0.137438 0.479131 1.638364 0.000000 0.000000 0.000000 0.961152 1.093750 -0.708883 1.760467 14.046353 0.596514 4.579797 21.758215 -6.039909 0.000000 0.000000 0.000000 1.358011 1.333487 -0.543936 0.718499 3.220183 -7.329566 -0.450398 -5.900778 1.761407 -57.427063 3.916315 -46.199970 -178.089191 -63.043063 -175.689855 0.000000 0.000000 0.000000 1.296947 0.704815 -1.057105 2.239912 12.767228 -5.034669 -4.887018 1.119649 2.057361 -48.497075 17.739487 87.735180 -173.482461 67.491661 171.759068 0.000000 0.000000 0.000000 
2.944778 26.626833 18.940525 0.000000 0.000000 0.000000 -11.897876 -47.668669 -2.427645 -35.585671 -3.847903 31.954924 44.045421 -7.325166 4.256667 -8.565016 -9.283494 -36.921100 -4.360750 0.192259 0.990709 0.000000 0.000000 0.000000 -16.003948 -41.106507 -2.538730 -19.113639 -0.959622 -46.496974 79.453746 7.359486 -8.869550 -34.162970 -17.358682 22.633903 -2.646110 1.487990 2.163173 0.000000 0.000000 0.000000 -16.882897 -43.365978 -5.639213 21.973801 6.350722 -8.245924 1.141282 1.322868 -1.638238 -0.226631 1.544414 1.558764 0.000000 0.000000 0.000000 1.117007 1.089363 -1.228920 2.147356 13.412512 0.392128 4.942994 20.456318 -5.670451 0.000000 0.000000 0.000000 1.737942 1.291487 -1.026784 0.725432 3.322984 -6.963770 -1.010226 -5.485827 0.969835 -57.521251 2.961579 -46.431302 -179.649794 -62.377058 -177.223738 0.000000 0.000000 0.000000 1.702657 0.740344 -1.521731 2.255175 13.618606 -6.068033 -3.515898 2.229734 1.809759 -49.899077 16.373806 86.700932 -173.683774 66.302572 171.989532 0.000000 0.000000 0.000000 
